{
  "accessors": [
    {
      "bufferView": 2,
      "componentType": 5126,
      "count": 1451,
      "max": [
        12.990018844604492,
        23.809307098388672,
        4.4371418952941895
      ],
      "min": [
        -10.506391525268555,
        8.046412467956543,
        -5.9049577713012695
      ],
      "type": "VEC3"
    },
    {
      "bufferView": 2,
      "byteOffset": 17412,
      "componentType": 5126,
      "count": 1451,
      "max": [
        0.9993818998336792,
        0.9997439980506897,
        0.99887090921401978
      ],
      "min": [
        -0.99960064888000488,
        -0.86518186330795288,
        -0.99742358922958374
      ],
      "type": "VEC3"
    },
    {
      "bufferView": 3,
      "componentType": 5126,
      "count": 1451,
      "max": [
        0.99979680776596069,
        0.99839448928833008,
        0.99843513965606689,
        1
      ],
      "min": [
        -0.99990236759185791,
        -0.99828231334686279,
        -0.99715548753738403,
        1
      ],
      "type": "VEC4"
    },
    {
      "bufferView": 1,
      "componentType": 5126,
      "count": 1451,
      "max": [
        0.98241502046585083,
        0.98323297500610352
      ],
      "min": [
        0.018415000289678574,
        0.013125999830663204
      ],
      "type": "VEC2"
    },
    {
      "bufferView": 0,
      "componentType": 5125,
      "count": 6762,
      "max": [
        1450
      ],
      "min": [
        0
      ],
      "type": "SCALAR"
    },
    {
      "bufferView": 2,
      "byteOffset": 34824,
      "componentType": 5126,
      "count": 29284,
      "max": [
        14.506935119628906,
        16.466066360473633,
        6.4963598251342773
      ],
      "min": [
        2.0281670093536377,
        -0.068517997860908508,
        -8.7597103118896484
      ],
      "type": "VEC3"
    },
    {
      "bufferView": 2,
      "byteOffset": 386232,
      "componentType": 5126,
      "count": 29284,
      "max": [
        0.99996721744537354,
        0.99999910593032837,
        0.99984550476074219
      ],
      "min": [
        -0.99999886751174927,
        -0.99999910593032837,
        -0.99976575374603271
      ],
      "type": "VEC3"
    },
    {
      "bufferView": 3,
      "byteOffset": 23216,
      "componentType": 5126,
      "count": 29284,
      "max": [
        0.99995452165603638,
        1,
        0.99999964237213135,
        1
      ],
      "min": [
        -0.9999849796295166,
        -1,
        -0.99998480081558228,
        -1
      ],
      "type": "VEC4"
    },
    {
      "bufferView": 1,
      "byteOffset": 11608,
      "componentType": 5126,
      "count": 29284,
      "max": [
        0.99267500638961792,
        0.99263101816177368
      ],
      "min": [
        0.0066840001381933689,
        0.0045960000716149807
      ],
      "type": "VEC2"
    },
    {
      "bufferView": 0,
      "byteOffset": 27048,
      "componentType": 5125,
      "count": 114198,
      "max": [
        29283
      ],
      "min": [
        0
      ],
      "type": "SCALAR"
    },
    {
      "bufferView": 2,
      "byteOffset": 737640,
      "componentType": 5126,
      "count": 13646,
      "max": [
        -0.25641399621963501,
        22.577312469482422,
        7.9329929351806641
      ],
      "min": [
        -14.467564582824707,
        -0.094986997544765472,
        -5.3702740669250488
      ],
      "type": "VEC3"
    },
    {
      "bufferView": 2,
      "byteOffset": 901392,
      "componentType": 5126,
      "count": 13646,
      "max": [
        0.99994200468063354,
        0.99990034103393555,
        0.99873638153076172
      ],
      "min": [
        -0.99984312057495117,
        -0.99993133544921875,
        -0.99990111589431763
      ],
      "type": "VEC3"
    },
    {
      "bufferView": 3,
      "byteOffset": 491760,
      "componentType": 5126,
      "count": 13646,
      "max": [
        0.99981313943862915,
        1,
        0.99993789196014404,
        1
      ],
      "min": [
        -0.99999624490737915,
        -0.99999988079071045,
        -0.99955868721008301,
        -1
      ],
      "type": "VEC4"
    },
    {
      "bufferView": 1,
      "byteOffset": 245880,
      "componentType": 5126,
      "count": 13646,
      "max": [
        0.9951140284538269,
        0.99740302562713623
      ],
      "min": [
        0.0059000002220273018,
        0.0051770000718533993
      ],
      "type": "VEC2"
    },
    {
      "bufferView": 0,
      "byteOffset": 483840,
      "componentType": 5125,
      "count": 46086,
      "max": [
        13645
      ],
      "min": [
        0
      ],
      "type": "SCALAR"
    }
  ],
  "asset": {
    "extras": {
      "author": "nyancube (https://sketchfab.com/NG1506)",
      "license": "CC-BY-4.0 (http://creativecommons.org/licenses/by/4.0/)",
      "source": "https://sketchfab.com/3d-models/terrarium-bots-nerdscribbles-bf9a19aae6914a2c866311887edc8b3e",
      "title": "Terrarium Bots (@nerdscribbles)"
    },
    "generator": "Sketchfab-9.66.0",
    "version": "2.0"
  },
  "bufferViews": [
    {
      "buffer": 0,
      "byteLength": 668184,
      "byteOffset": 0,
      "name": "floatBufferViews",
      "target": 34963
    },
    {
      "buffer": 0,
      "byteLength": 355048,
      "byteOffset": 668184,
      "byteStride": 8,
      "name": "floatBufferViews",
      "target": 34962
    },
    {
      "buffer": 0,
      "byteLength": 1065144,
      "byteOffset": 1023232,
      "byteStride": 12,
      "name": "floatBufferViews",
      "target": 34962
    },
    {
      "buffer": 0,
      "byteLength": 710096,
      "byteOffset": 2088376,
      "byteStride": 16,
      "name": "floatBufferViews",
      "target": 34962
    }
  ],
  "buffers": [
    {
      "byteLength": 2798472,
      "uri": "scene.bin"
    }
  ],
  "images": [
    {
      "uri": "textures/BOT1_baseColor.jpeg"
    },
    {
      "uri": "textures/BOT1_metallicRoughness.png"
    },
    {
      "uri": "textures/BOT1_emissive.jpeg"
    },
    {
      "uri": "textures/BOT1_normal.png"
    },
    {
      "uri": "textures/BOT2_baseColor.jpeg"
    },
    {
      "uri": "textures/BOT2_metallicRoughness.png"
    },
    {
      "uri": "textures/BOT2_emissive.jpeg"
    },
    {
      "uri": "textures/BOT2_normal.png"
    },
    {
      "uri": "textures/glass_baseColor.png"
    },
    {
      "uri": "textures/glass_metallicRoughness.png"
    },
    {
      "uri": "textures/glass_normal.png"
    }
  ],
  "materials": [
    {
      "doubleSided": true,
      "emissiveFactor": [
        1,
        1,
        1
      ],
      "emissiveTexture": {
        "index": 2,
        "texCoord": 0
      },
      "name": "BOT1",
      "normalTexture": {
        "index": 3,
        "scale": 1,
        "texCoord": 0
      },
      "occlusionTexture": {
        "index": 1,
        "strength": 1,
        "texCoord": 0
      },
      "pbrMetallicRoughness": {
        "baseColorFactor": [
          1,
          1,
          1,
          1
        ],
        "baseColorTexture": {
          "index": 0,
          "texCoord": 0
        },
        "metallicFactor": 1,
        "metallicRoughnessTexture": {
          "index": 1,
          "texCoord": 0
        },
        "roughnessFactor": 1
      }
    },
    {
      "doubleSided": true,
      "emissiveFactor": [
        1,
        1,
        1
      ],
      "emissiveTexture": {
        "index": 6,
        "texCoord": 0
      },
      "name": "BOT2",
      "normalTexture": {
        "index": 7,
        "scale": 1,
        "texCoord": 0
      },
      "occlusionTexture": {
        "index": 5,
        "strength": 1,
        "texCoord": 0
      },
      "pbrMetallicRoughness": {
        "baseColorFactor": [
          1,
          1,
          1,
          1
        ],
        "baseColorTexture": {
          "index": 4,
          "texCoord": 0
        },
        "metallicFactor": 1,
        "metallicRoughnessTexture": {
          "index": 5,
          "texCoord": 0
        },
        "roughnessFactor": 1
      }
    },
    {
      "alphaMode": "BLEND",
      "doubleSided": true,
      "name": "glass",
      "normalTexture": {
        "index": 10,
        "scale": 1,
        "texCoord": 0
      },
      "occlusionTexture": {
        "index": 9,
        "strength": 1,
        "texCoord": 0
      },
      "pbrMetallicRoughness": {
        "baseColorFactor": [
          1,
          1,
          1,
          0.29963853370543997
        ],
        "baseColorTexture": {
          "index": 8,
          "texCoord": 0
        },
        "metallicFactor": 1,
        "metallicRoughnessTexture": {
          "index": 9,
          "texCoord": 0
        },
        "roughnessFactor": 1
      }
    }
  ],
  "meshes": [
    {
      "name": "defaultMaterial",
      "primitives": [
        {
          "attributes": {
            "NORMAL": 1,
            "POSITION": 0,
            "TANGENT": 2,
            "TEXCOORD_0": 3
          },
          "indices": 4,
          "material": 2,
          "mode": 4
        }
      ]
    },
    {
      "name": "defaultMaterial",
      "primitives": [
        {
          "attributes": {
            "NORMAL": 6,
            "POSITION": 5,
            "TANGENT": 7,
            "TEXCOORD_0": 8
          },
          "indices": 9,
          "material": 1,
          "mode": 4
        }
      ]
    },
    {
      "name": "defaultMaterial",
      "primitives": [
        {
          "attributes": {
            "NORMAL": 11,
            "POSITION": 10,
            "TANGENT": 12,
            "TEXCOORD_0": 13
          },
          "indices": 14,
          "material": 0,
          "mode": 4
        }
      ]
    }
  ],
  "nodes": [
    {
      "children": [
        1
      ],
      "name": "RootNode (gltf orientation matrix)",
      "rotation": [
        -0.70710678118654746,
        -0,
        -0,
        0.70710678118654757
      ]
    },
    {
      "children": [
        2
      ],
      "name": "RootNode (model correction matrix)"
    },
    {
      "children": [
        3,
        5,
        7
      ],
      "matrix": [
        1,
        0,
        0,
        0,
        0,
        -4.3711390063094768e-08,
        0.999999999999999,
        0,
        0,
        -0.999999999999999,
        -4.3711390063094768e-08,
        0,
        0,
        0,
        0,
        1
      ],
      "name": "Collada visual scene group"
    },
    {
      "children": [
        4
      ],
      "name": "Glass"
    },
    {
      "mesh": 0,
      "name": "defaultMaterial"
    },
    {
      "children": [
        6
      ],
      "name": "Bot2"
    },
    {
      "mesh": 1,
      "name": "defaultMaterial"
    },
    {
      "children": [
        8
      ],
      "name": "Bot1"
    },
    {
      "mesh": 2,
      "name": "defaultMaterial"
    }
  ],
  "samplers": [
    {
      "magFilter": 9729,
      "minFilter": 9987,
      "wrapS": 10497,
      "wrapT": 10497
    }
  ],
  "scene": 0,
  "scenes": [
    {
      "name": "OSG_Scene",
      "nodes": [
        0
      ]
    }
  ],
  "textures": [
    {
      "sampler": 0,
      "source": 0
    },
    {
      "sampler": 0,
      "source": 1
    },
    {
      "sampler": 0,
      "source": 2
    },
    {
      "sampler": 0,
      "source": 3
    },
    {
      "sampler": 0,
      "source": 4
    },
    {
      "sampler": 0,
      "source": 5
    },
    {
      "sampler": 0,
      "source": 6
    },
    {
      "sampler": 0,
      "source": 7
    },
    {
      "sampler": 0,
      "source": 8
    },
    {
      "sampler": 0,
      "source": 9
    },
    {
      "sampler": 0,
      "source": 10
    }
  ]
}

